HIERARCHY
ROOT Hips
{
	OFFSET 0.000000 0.000000 0.000000 
	CHANNELS 6 Xposition Yposition Zposition Zrotation Yrotation Xrotation
	JOINT LeftUpLeg
	{
		OFFSET 1.363060 -1.794630 0.839290 
		CHANNELS 3 Zrotation Yrotation Xrotation
		JOINT LeftLeg
		{
			OFFSET 2.448110 -6.726130 0.000000 
			CHANNELS 3 Zrotation Yrotation Xrotation
			JOINT LeftFoot
			{
				OFFSET 2.562200 -7.039590 0.000000 
				CHANNELS 3 Zrotation Yrotation Xrotation
				JOINT LeftToeBase
				{
					OFFSET 0.157640 -0.433110 2.322550 
					CHANNELS 3 Zrotation Yrotation Xrotation
					End Site
					{
						OFFSET 0.000000 0.000000 0.000000 
					}
				}
			}
		}
	}
	JOINT RightUpLeg
	{
		OFFSET -1.305520 -1.794630 0.839290 
		CHANNELS 3 Zrotation Yrotation Xrotation
		JOINT RightLeg
		{
			OFFSET -2.542530 -6.985550 0.000000 
			CHANNELS 3 Zrotation Yrotation Xrotation
			JOINT RightFoot
			{
				OFFSET -2.568260 -7.056230 0.000000 
				CHANNELS 3 Zrotation Yrotation Xrotation
				JOINT RightToeBase
				{
					OFFSET -0.164730 -0.452590 2.363150 
					CHANNELS 3 Zrotation Yrotation Xrotation
					End Site
					{
						OFFSET 0.000000 0.000000 0.000000 
					}
				}
			}
		}
	}
	JOINT Spine
	{
		OFFSET 0.028270 2.035590 -0.193380 
		CHANNELS 3 Zrotation Yrotation Xrotation
		JOINT Spine1
		{
			OFFSET 0.056720 2.048850 -0.042750 
			CHANNELS 3 Zrotation Yrotation Xrotation
			JOINT Neck1
			{
				OFFSET -0.054170 1.746240 0.172020 
				CHANNELS 3 Zrotation Yrotation Xrotation
				JOINT Head
				{
					OFFSET 0.104070 1.761360 -0.123970 
					CHANNELS 3 Zrotation Yrotation Xrotation
					End Site
					{
						OFFSET 0.000000 0.000000 0.000000 
					}
				}
			}
			JOINT LeftArm
			{
				OFFSET 3.362410 1.200890 -0.311210 
				CHANNELS 3 Zrotation Yrotation Xrotation
				JOINT LeftForeArm
				{
					OFFSET 4.983000 -0.000000 -0.000000 
					CHANNELS 3 Zrotation Yrotation Xrotation
					JOINT LeftHand
					{
						OFFSET 3.483560 -0.000000 -0.000000 
						CHANNELS 3 Zrotation Yrotation Xrotation
						JOINT LeftHandIndex1
						{
							OFFSET 0.715260 -0.000000 -0.000000 
							CHANNELS 3 Zrotation Yrotation Xrotation
							End Site
							{
								OFFSET 0.000000 0.000000 0.000000 
							}
						}
					}
				}
			}
			JOINT RightArm
			{
				OFFSET -3.136600 1.374050 -0.404650 
				CHANNELS 3 Zrotation Yrotation Xrotation
				JOINT RightForeArm
				{
					OFFSET -5.241900 -0.000000 -0.000000 
					CHANNELS 3 Zrotation Yrotation Xrotation
					JOINT RightHand
					{
						OFFSET -3.444170 -0.000000 -0.000000 
						CHANNELS 3 Zrotation Yrotation Xrotation
						JOINT RightHandIndex1
						{
							OFFSET -0.622530 -0.000000 -0.000000 
							CHANNELS 3 Zrotation Yrotation Xrotation
							End Site
							{
								OFFSET 0.000000 0.000000 0.000000 
							}
						}
					}
				}
			}
		}
	}
}
MOTION
Frames: 18
Frame Time: 0.041667
-6.799124 17.338276 -24.505091 -0.800296 -0.018436 3.993531 -17.627891 -10.617267 -11.218568 1.163171 10.506418 30.563878 -0.310183 5.503419 -12.322447 0.108500 -2.124200 -5.849100 20.983498 12.098030 -12.687504 -2.596810 -12.452340 36.532609 0.572518 -7.770923 -13.729039 -0.378900 3.953300 -10.945200 0.522455 1.905574 -1.567548 0.674018 0.916684 -5.857874 5.937849 -4.444377 10.989282 2.257500 -2.052900 4.686900 -86.926536 -2.548518 36.360528 13.743462 -19.018345 -3.100587 -0.152112 0.903511 21.961776 -7.125000 0.000000 0.000000 85.191358 -6.759395 30.868477 -20.527297 29.309636 -5.868161 0.675753 -0.883531 3.267051 7.125000 0.000000 0.000000 
-6.799838 17.336440 -24.506314 -0.793306 -0.021351 3.990262 -17.632363 -10.613990 -11.239109 1.170668 10.520197 30.601906 -0.311306 5.511047 -12.323791 0.111800 -2.156000 -5.937000 20.978689 12.089759 -12.711666 -2.604736 -12.463904 36.566824 0.575030 -7.782909 -13.723557 -0.387900 3.999300 -11.074800 0.525383 1.898393 -1.563244 0.675945 0.912041 -5.852406 5.914622 -4.452427 10.990123 2.237100 -2.056000 4.695100 -86.913640 -2.598658 36.375801 13.744377 -19.018297 -3.102351 -0.156485 0.903631 21.935824 -7.125000 0.000000 0.000000 85.164410 -6.665305 30.857261 -20.492271 29.267409 -5.854051 0.677072 -0.883843 3.266163 7.125000 0.000000 0.000000 
-6.800653 17.335726 -24.506008 -0.800798 -0.035991 3.989292 -17.621991 -10.597638 -11.250076 1.174754 10.526180 30.620513 -0.306980 5.492704 -12.334778 0.112300 -2.161100 -5.951100 20.987179 12.072146 -12.736626 -2.613020 -12.476487 36.604219 0.565452 -7.742204 -13.744136 -0.381500 3.966900 -10.983600 0.526798 1.909560 -1.556647 0.664122 0.914636 -5.829934 5.891533 -4.487733 11.002261 2.215300 -2.071700 4.721200 -86.893075 -2.669231 36.420922 13.739557 -19.008191 -3.100171 -0.158033 0.904183 21.895606 -7.125000 0.000000 0.000000 85.148138 -6.639342 30.817643 -20.512264 29.289153 -5.865866 0.681303 -0.881269 3.284855 7.125000 0.000000 0.000000 
-6.801877 17.334605 -24.506722 -0.777816 -0.046031 3.980737 -17.647368 -10.594567 -11.248788 1.177710 10.531412 30.636342 -0.308940 5.509110 -12.347939 0.111700 -2.154600 -5.933200 20.964137 12.064820 -12.756297 -2.623017 -12.489395 36.645540 0.565332 -7.742040 -13.744737 -0.387600 3.998000 -11.071100 0.519708 1.916864 -1.552944 0.635182 0.916790 -5.829426 5.900437 -4.512972 11.004572 2.213200 -2.081800 4.731200 -86.850339 -2.708194 36.448245 13.738660 -19.005164 -3.102299 -0.158332 0.905972 21.911681 -7.125000 0.000000 0.000000 85.167708 -6.596318 30.763748 -20.507108 29.282553 -5.862552 0.680039 -0.882487 3.288566 7.125000 0.000000 0.000000 
-6.803508 17.332769 -24.507844 -0.750771 -0.071779 3.964011 -17.672909 -10.567328 -11.240905 1.180608 10.534040 30.648797 -0.308633 5.510355 -12.354767 0.112600 -2.163500 -5.957800 20.943164 12.067642 -12.767408 -2.632803 -12.501414 36.685887 0.558239 -7.708561 -13.752637 -0.385300 3.986200 -11.037800 0.526538 1.906612 -1.551910 0.672353 0.913456 -5.855265 5.885736 -4.499475 10.987337 2.205200 -2.076200 4.723000 -86.873164 -2.714913 36.419987 13.745153 -19.013170 -3.105564 -0.157669 0.906966 21.902515 -7.125000 0.000000 0.000000 85.129954 -6.498527 30.768980 -20.458899 29.221493 -5.841338 0.678604 -0.884836 3.283584 7.125000 0.000000 0.000000 
-6.805038 17.331750 -24.508252 -0.728197 -0.089964 3.953029 -17.693964 -10.548381 -11.230990 1.181829 10.534135 30.653203 -0.304760 5.493635 -12.363991 0.112600 -2.163500 -5.957700 20.923354 12.056217 -12.788146 -2.643253 -12.515023 36.729580 0.552881 -7.684382 -13.761405 -0.388800 4.004100 -11.088100 0.527347 1.910402 -1.546700 0.676041 0.915573 -5.858732 5.871406 -4.513934 10.950212 2.193800 -2.084400 4.685900 -86.871995 -2.723172 36.429511 13.743965 -19.013421 -3.105065 -0.158656 0.906414 21.906715 -7.125000 0.000000 0.000000 85.129812 -6.474942 30.690310 -20.430198 29.191560 -5.830671 0.681652 -0.883086 3.380353 7.125000 0.000000 0.000000 
-6.806363 17.330934 -24.508863 -0.714582 -0.105094 3.947318 -17.706264 -10.521374 -11.234526 1.183427 10.536013 30.660377 -0.302386 5.482671 -12.367137 0.113000 -2.167200 -5.968000 20.907898 12.035281 -12.812247 -2.652995 -12.527636 36.769409 0.545309 -7.642805 -13.756919 -0.385600 3.987600 -11.041700 0.529075 1.912848 -1.537737 0.688941 0.915726 -5.834844 5.909827 -4.513642 10.945709 2.223400 -2.083800 4.692900 -86.879416 -2.761921 36.425534 13.744998 -19.011771 -3.105407 -0.155572 0.907665 21.896562 -7.125000 0.000000 0.000000 85.095385 -6.461003 30.689435 -20.464994 29.228043 -5.844975 0.681230 -0.881958 3.322144 7.125000 0.000000 0.000000 
-6.807689 17.329914 -24.508455 -0.696513 -0.125820 3.934061 -17.726283 -10.497306 -11.220349 1.185225 10.536417 30.667207 -0.304389 5.497229 -12.377034 0.114800 -2.184200 -6.015000 20.891963 12.025700 -12.821895 -2.662484 -12.539101 36.809022 0.537123 -7.609455 -13.780102 -0.388000 3.999800 -11.076100 0.529812 1.910769 -1.530829 0.687782 0.914067 -5.831790 5.888508 -4.523631 10.920539 2.207300 -2.089200 4.671200 -86.886790 -2.780160 36.395172 13.751933 -19.024367 -3.113574 -0.174994 0.903778 21.850957 -7.125000 0.000000 0.000000 85.089430 -6.442590 30.652512 -20.456082 29.217661 -5.841285 0.680515 -0.882391 3.381132 7.125000 0.000000 0.000000 
-6.809830 17.328793 -24.509475 -0.688081 -0.138318 3.924730 -17.724233 -10.477223 -11.221478 1.187878 10.538886 30.677418 -0.298050 5.463705 -12.376355 0.113700 -2.173700 -5.985800 20.894305 12.036808 -12.834851 -2.670636 -12.551273 36.844758 0.534765 -7.599591 -13.783066 -0.383200 3.975400 -11.007600 0.535084 1.906654 -1.523313 0.704697 0.911844 -5.829284 5.874283 -4.536930 10.873746 2.194800 -2.096400 4.635300 -86.892031 -2.815796 36.388669 13.742590 -19.012672 -3.109779 -0.169675 0.905651 21.860733 -7.125000 0.000000 0.000000 85.062096 -6.420036 30.655214 -20.454378 29.211933 -5.837446 0.679052 -0.881738 3.357763 7.125000 0.000000 0.000000 
-6.811870 17.327773 -24.512126 -0.670588 -0.154410 3.919635 -17.730458 -10.442467 -11.243769 1.189386 10.541520 30.683651 -0.298765 5.459422 -12.355503 0.114000 -2.176700 -5.994200 20.880551 12.042573 -12.868173 -2.680784 -12.567116 36.889720 0.529939 -7.577408 -13.789017 -0.382200 3.970100 -10.992600 0.535441 1.903556 -1.525230 0.699835 0.910133 -5.854754 5.851483 -4.548724 10.879605 2.172200 -2.101500 4.634900 -86.875127 -2.828222 36.432411 13.739959 -19.009751 -3.109019 -0.176208 0.904168 21.803112 -7.125000 0.000000 0.000000 85.058051 -6.445033 30.652198 -20.471029 29.235988 -5.856677 0.688455 -0.878270 3.331059 7.125000 0.000000 0.000000 
-6.813909 17.326957 -24.512330 -0.652206 -0.149634 3.904123 -17.747291 -10.448549 -11.232215 1.191970 10.544949 30.695911 -0.299570 5.465495 -12.359072 0.116400 -2.199800 -6.058200 20.868442 12.024174 -12.880485 -2.691308 -12.579501 36.933265 0.525363 -7.563838 -13.813648 -0.382600 3.972100 -10.998100 0.538084 1.890638 -1.522535 0.721291 0.904333 -5.861359 5.911964 -4.534929 10.894229 2.218300 -2.094700 4.642900 -86.873998 -2.842995 36.440392 13.732361 -18.997967 -3.104529 -0.171944 0.905134 21.820186 -7.125000 0.000000 0.000000 85.030495 -6.445645 30.653685 -20.481553 29.246257 -5.860711 0.687728 -0.878205 3.329324 7.125000 0.000000 0.000000 
-6.816254 17.325530 -24.514879 -0.607520 -0.132457 3.904352 -17.783120 -10.454936 -11.251643 1.192602 10.549998 30.703789 -0.299468 5.461943 -12.348467 0.120800 -2.241000 -6.172100 20.823634 11.995548 -12.925371 -2.702168 -12.593899 36.978442 0.516372 -7.526179 -13.838810 -0.379200 3.954800 -10.949700 0.537082 1.873223 -1.530677 0.736911 0.897905 -5.902927 5.963981 -4.534552 10.906894 2.250200 -2.093000 4.652700 -86.852031 -2.838108 36.501578 13.727286 -18.988258 -3.099333 -0.160150 0.908171 21.834744 -7.125000 0.000000 0.000000 85.009668 -6.577408 30.687540 -20.575759 29.340136 -5.890444 0.673078 -0.883427 3.287174 7.125000 0.000000 0.000000 
-6.818701 17.325122 -24.516001 -0.609903 -0.143320 3.909365 -17.770855 -10.469149 -11.261526 1.193550 10.553140 30.709903 -0.301807 5.473311 -12.345532 0.118200 -2.216300 -6.103700 20.833837 12.008914 -12.955728 -2.711692 -12.610489 37.022732 0.515184 -7.526530 -13.849610 -0.379700 3.957400 -10.956900 0.541708 1.868556 -1.525404 0.738358 0.893954 -5.883873 5.941850 -4.539208 10.913318 2.231400 -2.094700 4.658000 -86.836934 -2.872198 36.556800 13.732727 -18.995563 -3.102683 -0.157397 0.909934 21.781384 -7.125000 0.000000 0.000000 84.996356 -6.563353 30.686233 -20.577382 29.336282 -5.883428 0.667279 -0.884715 3.311672 7.125000 0.000000 0.000000 
-6.820639 17.323592 -24.515083 -0.594572 -0.134472 3.904773 -17.781342 -10.463510 -11.261954 1.194262 10.554792 30.713767 -0.302487 5.474224 -12.338556 0.120700 -2.239900 -6.169100 20.824437 11.985296 -12.974169 -2.722989 -12.624790 37.070687 0.508646 -7.507020 -13.884044 -0.377700 3.947000 -10.927600 0.545485 1.847541 -1.511884 0.743281 0.881307 -5.834488 5.916680 -4.548718 10.902924 2.215100 -2.099600 4.657200 -86.831277 -2.928675 36.553191 13.747581 -19.015473 -3.110691 -0.174962 0.905431 21.722728 -7.125000 0.000000 0.000000 84.969451 -6.500954 30.691536 -20.544777 29.305181 -5.875679 0.677263 -0.879519 3.347329 7.125000 0.000000 0.000000 
-6.823902 17.322777 -24.518550 -0.551180 -0.127249 3.914507 -17.810161 -10.466215 -11.293010 1.195209 10.561667 30.724060 -0.301277 5.461676 -12.318928 0.121500 -2.246700 -6.187900 20.785280 11.977794 -13.026212 -2.732621 -12.640389 37.112541 0.508933 -7.505232 -13.874851 -0.382000 3.969500 -10.990800 0.550648 1.827745 -1.507478 0.773983 0.871318 -5.814438 5.902848 -4.542300 10.923461 2.202900 -2.094900 4.693600 -86.824884 -3.016257 36.564620 13.738394 -18.997624 -3.104130 -0.164948 0.908936 21.759953 -7.125000 0.000000 0.000000 84.943387 -6.355692 30.688671 -20.498747 29.243089 -5.848623 0.675423 -0.880061 3.360374 7.125000 0.000000 0.000000 
-6.826145 17.321247 -24.517225 -0.509109 -0.130538 3.900265 -17.854920 -10.455265 -11.266682 1.197657 10.563610 30.735760 -0.293855 5.438670 -12.357250 0.120400 -2.236800 -6.160500 20.742223 11.927011 -13.038951 -2.745219 -12.651660 37.160338 0.490871 -7.426113 -13.918108 -0.375100 3.933500 -10.889700 0.550595 1.821944 -1.499614 0.783627 0.867922 -5.789802 5.911168 -4.553550 10.926565 2.210400 -2.100500 4.701200 -86.810918 -3.043409 36.620231 13.740616 -18.998209 -3.101891 -0.162095 0.908739 21.759180 -7.125000 0.000000 0.000000 84.911783 -6.320846 30.700475 -20.481636 29.227181 -5.847209 0.679573 -0.879067 3.356199 7.125000 0.000000 0.000000 
-6.830326 17.320024 -24.521507 -0.543134 -0.146332 3.899604 -17.793157 -10.448872 -11.301649 1.201226 10.568979 30.749383 -0.294952 5.431077 -12.326196 0.120400 -2.237200 -6.161700 20.801290 11.989654 -13.071257 -2.753606 -12.672516 37.206561 0.499525 -7.478275 -13.921446 -0.376500 3.941100 -10.911000 0.557136 1.816974 -1.504338 0.783865 0.865262 -5.838073 5.940200 -4.522218 10.913228 2.232400 -2.085500 4.682900 -86.790029 -3.028484 36.657329 13.765062 -19.029568 -3.113096 -0.169103 0.907484 21.707800 -7.125000 0.000000 0.000000 84.918846 -6.287893 30.693633 -20.454427 29.196641 -5.836801 0.681187 -0.879564 3.354213 7.125000 0.000000 0.000000 
-6.833283 17.318086 -24.520284 -0.524868 -0.188187 3.880679 -17.809654 -10.411724 -11.279703 1.205081 10.570462 30.764294 -0.296669 5.450803 -12.353237 0.122400 -2.255100 -6.211100 20.791357 11.992314 -13.073137 -2.765824 -12.686931 37.257106 0.486670 -7.425172 -13.955060 -0.370000 3.907200 -10.815600 0.560935 1.816462 -1.499026 0.802183 0.866214 -5.862256 5.947676 -4.522916 10.838489 2.242900 -2.088800 4.613600 -86.799227 -3.023824 36.638249 13.760375 -19.023591 -3.107479 -0.166595 0.906105 21.755004 -7.125000 0.000000 0.000000 84.893825 -6.305468 30.728044 -20.445472 29.189158 -5.835689 0.683233 -0.878419 3.348229 7.125000 0.000000 0.000000 
